{
  "accessors": [
    {
      "bufferView": 2,
      "componentType": 5126,
      "count": 1816,
      "max": [
        4.325119972229004,
        -0.08611000329256058,
        25.64558982849121
      ],
      "min": [
        -4.325119972229004,
        -31.28529930114746,
        4.546879768371582
      ],
      "type": "VEC3"
    },
    {
      "bufferView": 2,
      "byteOffset": 21792,
      "componentType": 5126,
      "count": 1816,
      "max": [
        0.9988246560096741,
        0.9822958707809448,
        0.8732001185417175
      ],
      "min": [
        -0.9988246560096741,
        -0.9952554702758789,
        -0.9949683547019958
      ],
      "type": "VEC3"
    },
    {
      "bufferView": 1,
      "componentType": 5126,
      "count": 1816,
      "max": [
        1.0,
        1.0
      ],
      "min": [
        0.0,
        0.0
      ],
      "type": "VEC2"
    },
    {
      "bufferView": 0,
      "componentType": 5125,
      "count": 2856,
      "type": "SCALAR"
    },
    {
      "bufferView": 2,
      "byteOffset": 43584,
      "componentType": 5126,
      "count": 448,
      "max": [
        2.0966598987579346,
        5.8792901039123535,
        24.880250930786133
      ],
      "min": [
        -2.0966598987579346,
        -31.0067195892334,
        3.472830057144165
      ],
      "type": "VEC3"
    },
    {
      "bufferView": 2,
      "byteOffset": 48960,
      "componentType": 5126,
      "count": 448,
      "max": [
        0.985755980014801,
        0.884219765663147,
        0.9578533172607422
      ],
      "min": [
        -0.985755980014801,
        -0.8149688243865967,
        -0.9319244623184204
      ],
      "type": "VEC3"
    },
    {
      "bufferView": 1,
      "byteOffset": 14528,
      "componentType": 5126,
      "count": 448,
      "max": [
        0.9051700234413147,
        0.8734599947929382
      ],
      "min": [
        0.15442000329494476,
        0.3691200017929077
      ],
      "type": "VEC2"
    },
    {
      "bufferView": 0,
      "byteOffset": 11424,
      "componentType": 5125,
      "count": 672,
      "type": "SCALAR"
    },
    {
      "bufferView": 2,
      "byteOffset": 54336,
      "componentType": 5126,
      "count": 1268,
      "max": [
        4.279729843139648,
        0.9173700213432312,
        19.82615089416504
      ],
      "min": [
        -4.279729843139648,
        -30.984949111938477,
        -2.8034300804138184
      ],
      "type": "VEC3"
    },
    {
      "bufferView": 2,
      "byteOffset": 69552,
      "componentType": 5126,
      "count": 1268,
      "max": [
        0.993073582649231,
        0.9295485615730286,
        0.7713012099266052
      ],
      "min": [
        -0.993073582649231,
        -0.9301016926765442,
        -1.0
      ],
      "type": "VEC3"
    },
    {
      "bufferView": 1,
      "byteOffset": 18112,
      "componentType": 5126,
      "count": 1268,
      "max": [
        0.9797499775886536,
        0.8682100176811218
      ],
      "min": [
        0.0,
        0.014840000309050083
      ],
      "type": "VEC2"
    },
    {
      "bufferView": 0,
      "byteOffset": 14112,
      "componentType": 5125,
      "count": 2172,
      "type": "SCALAR"
    },
    {
      "bufferView": 2,
      "byteOffset": 84768,
      "componentType": 5126,
      "count": 4,
      "max": [
        1.0,
        1.0,
        0.0
      ],
      "min": [
        -1.0,
        -1.0,
        0.0
      ],
      "type": "VEC3"
    },
    {
      "bufferView": 2,
      "byteOffset": 84816,
      "componentType": 5126,
      "count": 4,
      "max": [
        0.0,
        0.0,
        1.0
      ],
      "min": [
        0.0,
        0.0,
        1.0
      ],
      "type": "VEC3"
    },
    {
      "bufferView": 0,
      "byteOffset": 22800,
      "componentType": 5125,
      "count": 6,
      "type": "SCALAR"
    }
  ],
  "asset": {
    "extras": {
      "author": "uheartbeast (https://sketchfab.com/uheartbeast)",
      "license": "SKETCHFAB Standard (https://sketchfab.com/licenses)",
      "source": "https://sketchfab.com/3d-models/low-poly-horse-19d5847137f042409cbe39306eab6596",
      "title": "Low Poly Horse"
    },
    "generator": "Sketchfab-15.62.0",
    "version": "2.0"
  },
  "bufferViews": [
    {
      "buffer": 0,
      "byteLength": 22824,
      "name": "floatBufferViews",
      "target": 34963
    },
    {
      "buffer": 0,
      "byteLength": 28256,
      "byteOffset": 22824,
      "byteStride": 8,
      "name": "floatBufferViews",
      "target": 34962
    },
    {
      "buffer": 0,
      "byteLength": 84864,
      "byteOffset": 51080,
      "byteStride": 12,
      "name": "floatBufferViews",
      "target": 34962
    }
  ],
  "buffers": [
    {
      "byteLength": 135944,
      "uri": "scene.bin"
    }
  ],
  "materials": [
    {
      "doubleSided": true,
      "name": "Material.001",
      "pbrMetallicRoughness": {
        "baseColorFactor": [
          0.37857987350645234,
          0.7323077856100025,
          0.27466453830879217,
          1.0
        ],
        "metallicFactor": 0.0,
        "roughnessFactor": 0.6
      }
    },
    {
      "doubleSided": true,
      "name": "ShortHair",
      "pbrMetallicRoughness": {
        "baseColorFactor": [
          0.6729611973702977,
          0.3493603996767359,
          0.19749459325773205,
          1.0
        ],
        "metallicFactor": 0.0,
        "roughnessFactor": 0.6
      }
    },
    {
      "doubleSided": true,
      "name": "LongHair",
      "pbrMetallicRoughness": {
        "baseColorFactor": [
          0.13435859879858414,
          0.062148738844462474,
          0.03914349434225947,
          1.0
        ],
        "metallicFactor": 0.0,
        "roughnessFactor": 0.6
      }
    },
    {
      "doubleSided": true,
      "name": "WhiteHair",
      "pbrMetallicRoughness": {
        "baseColorFactor": [
          0.8000000119,
          0.8000000119,
          0.8000000119,
          1.0
        ],
        "metallicFactor": 0.0,
        "roughnessFactor": 0.6
      }
    }
  ],
  "meshes": [
    {
      "name": "Cylinder_0",
      "primitives": [
        {
          "attributes": {
            "NORMAL": 1,
            "POSITION": 0,
            "TEXCOORD_0": 2
          },
          "indices": 3,
          "material": 1,
          "mode": 4
        }
      ]
    },
    {
      "name": "Cylinder_1",
      "primitives": [
        {
          "attributes": {
            "NORMAL": 5,
            "POSITION": 4,
            "TEXCOORD_0": 6
          },
          "indices": 7,
          "material": 2,
          "mode": 4
        }
      ]
    },
    {
      "name": "Cylinder_2",
      "primitives": [
        {
          "attributes": {
            "NORMAL": 9,
            "POSITION": 8,
            "TEXCOORD_0": 10
          },
          "indices": 11,
          "material": 3,
          "mode": 4
        }
      ]
    },
    {
      "name": "Plane_0",
      "primitives": [
        {
          "attributes": {
            "NORMAL": 13,
            "POSITION": 12
          },
          "indices": 14,
          "material": 0,
          "mode": 4
        }
      ]
    }
  ],
  "nodes": [
    {
      "children": [
        1
      ],
      "matrix": [
        0.2706318497657776,
        0.0,
        0.0,
        0.0,
        0.0,
        6.009234216137251e-17,
        -0.2706318497657776,
        0.0,
        0.0,
        0.2706318497657776,
        6.009234216137251e-17,
        0.0,
        0.0,
        0.0,
        0.0,
        1.0
      ],
      "name": "Sketchfab_model"
    },
    {
      "children": [
        2,
        4,
        8,
        10
      ],
      "name": "Root"
    },
    {
      "children": [
        3
      ],
      "matrix": [
        -0.29086000000000006,
        0.9551700000000001,
        -0.05519000000000001,
        0.0,
        -0.7711,
        -0.19988000000000003,
        0.6045200000000001,
        0.0,
        0.5663900000000001,
        0.21839000000000003,
        0.7946700000000001,
        0.0,
        5.30536,
        -0.90926,
        5.903860000000001,
        1.0
      ],
      "name": "Lamp"
    },
    {
      "name": "Lamp"
    },
    {
      "children": [
        5,
        6,
        7
      ],
      "matrix": [
        0.24934000000000003,
        0.0,
        0.0,
        0.0,
        0.0,
        0.24934000000000003,
        0.0,
        0.0,
        0.0,
        0.0,
        0.24934000000000003,
        0.0,
        -0.0,
        3.59321,
        -2.60455,
        1.0
      ],
      "name": "Cylinder"
    },
    {
      "mesh": 0,
      "name": "Cylinder_0"
    },
    {
      "mesh": 1,
      "name": "Cylinder_1"
    },
    {
      "mesh": 2,
      "name": "Cylinder_2"
    },
    {
      "children": [
        9
      ],
      "matrix": [
        1.0,
        0.0,
        0.0,
        0.0,
        0.0,
        1.0,
        0.0,
        0.0,
        0.0,
        0.0,
        1.0,
        0.0,
        -6.22608,
        -2.51198,
        0.0,
        1.0
      ],
      "name": "Point"
    },
    {
      "name": "Point"
    },
    {
      "children": [
        11
      ],
      "matrix": [
        -16.34701,
        0.0,
        0.0,
        0.0,
        0.0,
        -16.34701,
        0.0,
        0.0,
        0.0,
        0.0,
        -16.34701,
        0.0,
        0.0,
        0.0,
        -3.33437,
        1.0
      ],
      "name": "Plane"
    },
    {
      "mesh": 3,
      "name": "Plane_0"
    }
  ],
  "scene": 0,
  "scenes": [
    {
      "name": "Sketchfab_Scene",
      "nodes": [
        0
      ]
    }
  ]
}
